<?xml version="1.0" encoding="utf-8"?>
<!-- Generator: Adobe Illustrator 13.0.2, SVG Export Plug-In . SVG Version: 6.00 Build 14948)  -->
<!DOCTYPE svg PUBLIC "-//W3C//DTD SVG 1.1//EN" "http://www.w3.org/Graphics/SVG/1.1/DTD/svg11.dtd">
<svg version="1.1" id="Layer_1" xmlns="http://www.w3.org/2000/svg" xmlns:xlink="http://www.w3.org/1999/xlink" x="0px" y="0px"
	 viewBox="0 0 1000 1000" enable-background="new 0 0 1000 1000" xml:space="preserve">
<g>
	<path d="M128.998,937.823c0,16.199-0.6,25.199-4.8,34.049c-2.4,5.699-7.5,11.249-12.15,14.399
		c-7.799,5.55-16.499,6.749-25.949,6.749c-4.95,0-10.05-0.6-14.399-1.649c-3.6-0.601-6.75-1.5-9.15-2.55v-30.899h2.4
		c1.35,4.05,3.6,6.9,6.75,8.55c2.85,1.65,6.6,2.4,10.649,2.4c4.2,0,7.95-0.9,11.1-3.3c2.85-1.8,4.8-4.8,6-8.4
		c1.35-4.05,1.95-8.549,1.95-19.349v-15.899c0-39.448,0-44.998-7.05-45.599v-2.55c5.85,0,13.35,0.15,20.249,0.15
		c7.5,0,14.85-0.15,20.25-0.15v2.55c-5.85,0.601-5.85,6.15-5.85,45.599V937.823z"/>
	<path d="M304.049,921.924c0-39.448,0-45.148-6.3-45.599v-2.55c4.2,0,11.549,0.15,20.549,0.15c8.1,0,15.449-0.15,20.699-0.15v2.55
		c-6.45,0.45-6.45,6.15-6.45,45.599v14.85c0,9.6,1.35,16.049,4.5,20.849c3.6,5.55,10.5,8.7,18.599,8.7c6.75,0,13.05-3,17.1-8.4
		c3.45-4.649,4.8-10.799,4.8-21.148v-14.85c0-39.448,0-45.148-7.05-45.599v-2.55c5.85,0,13.5,0.15,20.699,0.15
		c9,0,16.349-0.15,19.799-0.15v2.55c-5.85,0.45-6,6.15-6,45.599v14.249c0,19.199-3.6,29.399-10.05,37.948
		c-5.85,9.3-19.949,18.899-39.298,18.899c-21.149,0-37.198-8.55-45.148-23.249c-4.95-8.55-6.45-17.699-6.45-32.849V921.924z"/>
	<path d="M581.998,921.924c0-39.448,0-44.398-6.75-45.448v-2.7c4.201,0,11.551,0.15,20.551,0.15c7.498,0,15.148-0.15,20.398-0.15
		v2.55c-6.15,0.9-6.301,6.15-6.301,36.749v8.1h0.451l14.549-18.3c16.949-20.249,19.799-25.799,14.699-26.549v-2.55
		c6.6,0,14.4,0.15,21.299,0.15c7.201,0,15.449-0.15,21.6-0.15v2.55c-4.949,0.601-8.85,6.3-28.348,28.199l-20.551,23.399l27.6,33.298
		c17.699,21.449,22.049,26.399,26.998,27.149v2.7c-6-0.15-13.949-0.15-22.199-0.15c-7.199,0-14.848,0-23.098,0.15v-2.55
		c4.949-0.601-0.451-7.65-13.65-24.899l-19.049-24.749l-0.301,0.15v11.249c0,32.099,0.15,37.198,7.051,38.249v2.55
		c-5.85-0.15-12.75-0.15-20.549-0.15c-7.65,0-18.299,0-21.449,0.15v-2.7c7.049-1.05,7.049-6,7.049-48.448V921.924z"/>
	<path d="M850.496,921.924c0-39.448,0-45.148-6.148-45.599v-2.55c5.1,0,18.898,0.15,34.348,0.15c13.199,0,26.998-0.15,37.498-0.15
		c-0.15,8.1-0.449,16.199-0.6,29.549h-2.549c-0.9-5.55-7.051-7.199-17.25-7.199h-17.4v24.449h14.701
		c10.498,0,13.348-0.45,14.398-3.45h2.551c-0.15,5.25-0.301,9.75-0.301,14.1c0,4.949,0.15,9.749,0.301,15.599h-2.4
		c-1.051-3.149-4.051-4.05-14.25-4.05h-15v20.399c0,3.3,0.301,4.2,3,4.8c5.1,0,14.1,0.15,20.85,0c7.35-0.3,12-1.649,13.049-6.3
		h2.551c-0.449,14.25-0.6,21.149-0.6,29.399c-11.25-0.15-23.25-0.15-34.35-0.15c-18.148,0-34.049,0-38.848,0.15v-2.55
		c6.449-0.601,6.449-6.15,6.449-48.599V921.924z"/>
</g>
<g>

		<rect x="193.508" y="149.93" transform="matrix(0.7071 -0.7071 0.7071 0.7071 -174.0251 481.7636)" fill="none" stroke="#000000" stroke-width="30" width="602.035" height="602.036"/>
	<path d="M434.447,93.984l-2.086,436.759c-6.914,125.713-124.448,172.313-124.448,172.313L192.717,583.694
		c0,0,96.049-32.511,96.049-121.557c0-69.259,0-247.301,0-247.301"/>
	<polyline points="599.862,758.452 599.862,220.115 684.934,220.115 854.426,400.213 647.194,400.213 647.436,725.454 	"/>
</g>
</svg>
